<svg width="154" height="82" viewBox="0 0 154 82" fill="none" xmlns="http://www.w3.org/2000/svg">
<path d="M10.5601 23.0581C14.3143 26.5798 17.4263 29.2081 20.3236 32.0273C21.9807 33.714 23.8295 35.6158 20.9587 38.7862C14.4295 33.8782 7.69629 29.6914 2.11638 23.862C-0.273486 21.4394 -0.0339251 19.3761 2.1591 16.6544C2.95044 15.6421 3.93339 14.8449 4.79215 14.081C9.67319 9.97045 14.5542 5.85992 19.5932 1.8402C21.2202 0.470019 23.1294 -0.842748 25.0118 1.18319C26.7026 2.99412 26.0904 5.15759 24.6887 6.86698C23.0724 8.76735 21.2307 10.3285 19.4227 12.0138C18.1345 13.1597 16.7222 14.3389 15.8847 16.1631C16.6299 15.9628 17.3751 15.7625 18.1203 15.5622C26.4416 13.3254 29.9617 14.5113 35.2807 21.3437C39.4501 26.886 42.4112 32.8863 43.6105 39.76C43.9245 41.408 44.2385 43.056 44.5188 44.5798C46.057 51.2291 49.2719 52.7636 55.1341 49.3222C58.1273 47.5848 60.7941 45.1355 63.5619 43.0589C71.7981 36.5806 77.8927 36.9413 85.2876 44.5482C90.8338 50.2535 95.0245 56.8561 97.6112 64.423C98.3758 66.7494 99.1742 69.2 100.278 71.302C102.158 74.7943 104.291 75.2872 107.172 72.647C110.302 69.94 112.891 66.7122 115.638 63.5752C117.593 61.4504 119.199 59.0199 121.312 56.986C125.662 52.8848 130.902 51.0766 136.723 53.3764C141.066 55.1406 145.387 57.3108 149.492 59.672C152.177 61.2158 154.07 63.772 153.252 68.1229C151.864 67.4298 150.759 66.7941 149.529 66.1918C145.175 63.8974 140.821 61.603 136.286 59.6237C131.909 57.7353 128.194 59.2671 125.266 62.7192C122.768 65.7895 120.586 69.0413 118.054 71.9874C115.703 74.6182 113.386 77.3733 110.584 79.3257C104.585 83.7367 97.9054 82.2008 94.3694 75.5555C92.7478 72.5266 91.5556 69.1157 90.5213 65.7957C88.3284 59.1891 84.5316 53.5467 79.7519 48.7015C75.7386 44.7164 73.4587 44.6629 69.0301 47.9855C65.3698 50.7019 61.9347 53.7574 57.9816 55.8861C55.4515 57.3658 52.155 57.9854 49.0962 58.008C43.7912 58.1015 40.1717 55.0766 38.6655 50.0178C37.9239 47.2854 37.2728 44.3954 37.028 41.5294C36.3025 34.9282 33.0699 29.4006 29.2837 24.2883C27.4244 21.8564 25.2137 20.585 21.8603 21.4864C18.507 22.3878 15.0755 22.5106 10.5601 23.0581Z" fill="#047392"/>
</svg>
