<svg width="92" height="123" viewBox="0 0 92 123" fill="none" xmlns="http://www.w3.org/2000/svg">
<path d="M49.9578 112.622C50.6359 112.621 50.8761 112.735 51.1368 112.682C67.5444 105.357 79.4987 93.5798 85.5793 76.4964C87.1254 72.1863 87.5233 67.5654 86.9091 62.9051C85.6794 52.9051 78.4029 45.2193 68.54 43.414C63.405 42.4439 58.324 42.4143 53.4666 44.7047C52.8348 47.0893 52.2865 49.4842 51.5083 51.6811C50.2216 55.2589 47.9317 58.0344 44.2828 59.4542C41.6037 60.5687 39.0991 60.2611 37.9277 58.7588C36.3902 56.787 36.6777 54.445 37.9993 52.6545C39.8306 50.1624 41.9754 47.8786 44.1831 45.7723C45.6203 44.4205 47.444 43.3709 49.1008 42.3007C48.8421 32.6747 40.4021 27.563 29.2333 30.1822C28.735 31.4794 28.2265 32.8604 27.6447 34.1474C25.3691 38.8774 21.818 42.2621 16.5932 43.4036C14.5909 43.837 12.4729 43.8316 11.0189 41.8701C9.93091 40.378 10.2185 38.036 11.8418 35.858C14.4643 32.4442 18.0386 30.251 21.8223 28.4231C23.167 27.8241 24.5117 27.2251 25.8462 26.7097C25.9738 11.867 14.14 -0.11416 0.564374 4.16229C0.781372 3.08517 0.810853 2.15484 1.20642 1.69398C1.69573 1.15973 2.65515 0.937912 3.42706 0.862881C10.6876 0.395892 17.1803 2.04213 21.9701 7.89434C25.5885 12.2442 27.7684 17.2666 28.9478 22.8453C29.1058 23.6288 29.2638 24.4124 29.5053 25.2062C29.495 25.2898 29.6517 25.394 29.9549 25.6859C30.7165 25.6945 31.6348 25.8073 32.5737 25.7527C43.9764 25.3698 49.4507 29.0985 53.343 40.1895C54.3859 39.978 55.5958 39.7869 56.7325 39.502C63.4279 38.1165 69.8768 38.7385 76.1216 41.7128C86.2929 46.5277 92.0193 56.4854 91.3534 68.1205C91.0005 74.4451 89.1758 80.3342 86.2028 85.9124C78.9571 99.3717 68.5747 109.389 54.1566 115.006C53.4373 115.342 52.6449 115.584 51.9256 115.92C51.8319 115.994 51.7279 116.151 51.4158 116.622C54.1721 117.64 56.8745 117.717 59.5666 117.877C62.1649 118.112 64.8672 118.189 67.7263 118.37C67.2088 120.514 65.9373 121.207 64.4564 121.534C62.7251 121.831 60.9732 122.295 59.2932 122.174C54.7645 121.788 50.1625 121.308 45.6016 120.493C42.0426 119.801 41.2769 117.754 43.2226 115.022C47.4055 109.252 51.6719 103.493 55.9383 97.734C56.6459 96.802 57.5 96.0579 58.5621 94.9996C59.9224 97.0345 59.0902 98.2908 58.3517 99.4737C55.4596 103.703 52.8178 107.964 49.9578 112.622ZM13.8315 39.6683C19.6845 39.6228 23.7262 36.3833 24.6134 31.2281C20.465 33.2659 16.5143 35.0732 13.8315 39.6683ZM40.4578 56.0978C45.5272 55.5316 48.2756 52.4729 48.4011 47.3091C44.9001 49.5962 41.8369 51.7672 40.4578 56.0978Z" fill="#047392"/>
</svg>
