<svg width="61" height="60" viewBox="0 0 61 60" fill="none" xmlns="http://www.w3.org/2000/svg">
<rect x="0.966471" y="0.666666" width="58.6665" height="58.6666" rx="29.3333" stroke="#C1F1FF" stroke-width="1.33333"/>
<path d="M42.6608 16.1113H17.9387C17.5335 16.1113 17.1449 16.2723 16.8584 16.5588C16.5719 16.8453 16.4109 17.2339 16.4109 17.6391V42.3613C16.4109 42.7665 16.5719 43.1551 16.8584 43.4416C17.1449 43.7281 17.5335 43.8891 17.9387 43.8891H31.2442V33.1252H27.6331V28.9585H31.2442V25.8335C31.1694 25.0999 31.256 24.3587 31.498 23.6621C31.7399 22.9654 32.1314 22.3301 32.6448 21.8008C33.1583 21.2714 33.7814 20.8608 34.4703 20.5978C35.1593 20.3347 35.8975 20.2256 36.6331 20.278C37.7141 20.2713 38.7946 20.327 39.8692 20.4447V24.1947H37.6608C35.9108 24.1947 35.5775 25.028 35.5775 26.2363V28.9169H39.7442L39.2025 33.0835H35.5775V43.8891H42.6608C42.8615 43.8891 43.0601 43.8496 43.2455 43.7728C43.4308 43.696 43.5993 43.5835 43.7411 43.4416C43.883 43.2998 43.9955 43.1313 44.0723 42.946C44.1491 42.7606 44.1886 42.562 44.1886 42.3613V17.6391C44.1886 17.4385 44.1491 17.2398 44.0723 17.0545C43.9955 16.8691 43.883 16.7007 43.7411 16.5588C43.5993 16.4169 43.4308 16.3044 43.2455 16.2276C43.0601 16.1508 42.8615 16.1113 42.6608 16.1113Z" fill="#047392"/>
</svg>
