<svg width="116" height="116" viewBox="0 0 116 116" fill="none" xmlns="http://www.w3.org/2000/svg">
<circle cx="58" cy="58" r="48" fill="#F9F9F9" stroke="#00B3FF" stroke-width="20"/>
<path d="M34.2513 102.08L31.2245 100.363L31.8048 99.3399L34.8316 101.057L34.2513 102.08ZM35.4832 99.4954L32.1642 97.6123L32.7623 96.5581L37.3964 99.1873L34.0092 105.157L29.4899 102.593L30.0939 101.529L33.2981 103.347L35.4832 99.4954Z" fill="white"/>
<path d="M25.6606 92.9426L24.4802 94.2561L19.5676 94.3436L18.3729 93.1624L22.7505 93.0017L23.9722 92.9777L25.6606 92.9426ZM27.7386 92.7695L22.9128 97.6507L21.8376 96.5877L26.6633 91.7065L27.7386 92.7695ZM24.3422 89.4117L24.0252 93.3338L22.5577 93.4185L23.0707 88.1547L24.3422 89.4117Z" fill="white"/>
<path d="M15.1718 79.9081C15.5451 79.6906 15.9304 79.605 16.3277 79.6513C16.721 79.6907 17.1058 79.8507 17.4823 80.1314C17.8518 80.416 18.1936 80.828 18.5077 81.3672C18.7775 81.8303 18.9811 82.3228 19.1184 82.8446C19.2517 83.3595 19.2967 83.8101 19.2533 84.1965L17.9532 84.3011C17.9949 83.9435 17.9663 83.5528 17.8675 83.1289C17.7687 82.705 17.6106 82.3064 17.3931 81.9332C17.1354 81.4908 16.8905 81.2214 16.6585 81.1251C16.4265 81.0288 16.2206 81.033 16.0409 81.1377C15.875 81.2344 15.7819 81.3765 15.7617 81.5643C15.7374 81.7451 15.76 81.9587 15.8295 82.2052C15.8881 82.4488 15.9657 82.7092 16.0623 82.9862C16.152 83.2673 16.2347 83.5524 16.3106 83.8415C16.3864 84.1306 16.4226 84.4151 16.4189 84.695C16.4153 84.9748 16.3481 85.2408 16.2172 85.493C16.0823 85.7382 15.8559 85.9535 15.5379 86.1387C15.1716 86.3521 14.7897 86.4357 14.3924 86.3894C13.9951 86.3431 13.6117 86.1776 13.2421 85.8929C12.8686 85.6013 12.5328 85.1998 12.2348 84.6883C12.0214 84.3219 11.8494 83.9314 11.7189 83.5167C11.5775 83.0991 11.5161 82.6997 11.5348 82.3185L12.8107 82.1724C12.7909 82.5357 12.8344 82.8807 12.9414 83.2073C13.0373 83.531 13.1659 83.8311 13.3269 84.1076C13.5686 84.5223 13.8094 84.7847 14.0495 84.8949C14.2855 84.9981 14.5038 84.9913 14.7042 84.8745C14.8701 84.7779 14.9652 84.6391 14.9895 84.4583C15.0098 84.2706 14.9906 84.055 14.932 83.8113C14.8665 83.5717 14.7855 83.3134 14.6889 83.0364C14.5883 82.7524 14.5055 82.4673 14.4406 82.1811C14.3648 81.892 14.3286 81.6075 14.3322 81.3276C14.3249 81.0449 14.3853 80.7829 14.5132 80.5417C14.6412 80.3005 14.8607 80.0893 15.1718 79.9081Z" fill="white"/>
<path d="M14.3618 72.8679L7.73543 74.6583L6.96229 71.7969C6.80161 71.2022 6.75938 70.6626 6.83559 70.1779C6.90409 69.6953 7.08466 69.2902 7.37732 68.9625C7.66789 68.6271 8.06418 68.3916 8.56617 68.256C9.06817 68.1203 9.53301 68.1232 9.96068 68.2645C10.3785 68.4002 10.7424 68.6582 11.0524 69.0385C11.3546 69.4209 11.586 69.9095 11.7467 70.5042L12.3007 72.5546L11.4536 72.0874L13.9674 71.4082L14.3618 72.8679ZM11.6273 72.0405L11.0878 72.7581L10.5933 70.9277C10.4555 70.418 10.248 70.0639 9.97059 69.8653C9.68548 69.6689 9.34985 69.6229 8.9637 69.7272C8.57755 69.8315 8.31464 70.0393 8.17498 70.3505C8.03533 70.6617 8.03436 71.0722 8.17209 71.5819L8.66665 73.4123L7.85076 73.0609L11.6273 72.0405Z" fill="white"/>
<path d="M12.0018 60.5062L5.13777 60.5082L5.13733 58.9962L10.7773 58.9946L10.7763 55.4666L12.0003 55.4662L12.0018 60.5062Z" fill="white"/>
<path d="M13.7661 45.8701C13.5693 46.571 13.2466 47.1576 12.7981 47.6299C12.3442 48.0923 11.8148 48.409 11.2101 48.5798C10.6053 48.7506 9.97563 48.7441 9.32097 48.5602C8.66631 48.3763 8.12917 48.055 7.70955 47.5964C7.28224 47.1357 6.99905 46.5908 6.85999 45.9618C6.71539 45.3228 6.74046 44.6568 6.93518 43.9636C7.13206 43.2628 7.4575 42.6811 7.91149 42.2186C8.35994 41.7463 8.88653 41.4248 9.49126 41.2539C10.0883 41.081 10.7141 41.0864 11.3688 41.2703C12.0235 41.4542 12.5644 41.7766 12.9918 42.2373C13.4191 42.698 13.705 43.2479 13.8496 43.8868C13.9887 44.5158 13.9609 45.1769 13.7661 45.8701ZM12.5267 45.5344C12.6457 45.1108 12.6583 44.7113 12.5643 44.3359C12.4648 43.9506 12.2754 43.619 11.9961 43.3412C11.7169 43.0633 11.3693 42.8659 10.9534 42.7491C10.5298 42.6301 10.1292 42.6214 9.75163 42.7231C9.36853 42.8149 9.03911 42.9966 8.7634 43.2682C8.48768 43.5397 8.29141 43.8834 8.17458 44.2993C8.05774 44.7152 8.04523 45.1147 8.13704 45.4978C8.22885 45.881 8.41331 46.2153 8.6904 46.5009C8.96195 46.7766 9.30953 46.974 9.73313 47.0929C10.149 47.2098 10.5485 47.2223 10.9316 47.1305C11.3169 47.031 11.6523 46.8427 11.9379 46.5656C12.2158 46.2863 12.4121 45.9426 12.5267 45.5344Z" fill="white"/>
<path d="M17.4132 36.2076L11.5923 32.5699L13.1631 30.0564C13.4896 29.534 13.8563 29.1358 14.2633 28.8619C14.6636 28.5838 15.0833 28.4404 15.5226 28.4319C15.9661 28.4166 16.4083 28.5468 16.8493 28.8224C17.2835 29.0937 17.5909 29.432 17.7716 29.8374C17.9564 30.2359 18.0116 30.676 17.937 31.1577C17.8624 31.6394 17.6618 32.1414 17.3354 32.6638L16.2098 34.465L16.0062 33.5453L18.2145 34.9254L17.4132 36.2076ZM19.7789 32.422L16.7274 32.5951L17.5923 31.2111L20.6438 31.038L19.7789 32.422ZM16.1588 33.6407L15.2659 33.7336L16.2707 32.1258C16.5505 31.678 16.6688 31.285 16.6255 30.9466C16.5755 30.604 16.3809 30.3267 16.0416 30.1148C15.7024 29.9028 15.3713 29.8515 15.0482 29.9609C14.7251 30.0703 14.4237 30.3489 14.1439 30.7966L13.1391 32.4045L12.8414 31.5675L16.1588 33.6407Z" fill="white"/>
<path d="M34.7198 15.9943C34.9489 16.3605 35.0465 16.743 35.0127 17.1415C34.9856 17.5359 34.8377 17.9256 34.569 18.3106C34.2961 18.6889 33.895 19.0434 33.366 19.3743C32.9115 19.6585 32.4257 19.8774 31.9084 20.031C31.398 20.1804 30.949 20.2394 30.5614 20.2081L30.4161 18.912C30.7748 18.9424 31.1645 18.9016 31.585 18.7896C32.0056 18.6776 32.399 18.507 32.7653 18.278C33.1994 18.0065 33.461 17.7533 33.55 17.5184C33.6389 17.2835 33.6283 17.0779 33.518 16.9015C33.4162 16.7387 33.2712 16.6501 33.0829 16.6358C32.9014 16.6171 32.6886 16.6464 32.4444 16.7237C32.2027 16.7899 31.945 16.8756 31.6711 16.9808C31.393 17.0792 31.1106 17.1709 30.824 17.2558C30.5374 17.3406 30.2542 17.3857 29.9743 17.3908C29.6945 17.396 29.4265 17.3371 29.1704 17.2142C28.9211 17.0871 28.6988 16.8675 28.5037 16.5555C28.2789 16.196 28.1834 15.8169 28.2172 15.4184C28.2511 15.0198 28.4044 14.6314 28.6774 14.2531C28.9572 13.8706 29.348 13.5224 29.8499 13.2085C30.2094 12.9837 30.5944 12.7996 31.0048 12.6562C31.4177 12.5017 31.815 12.4279 32.1966 12.4346L32.3826 13.7052C32.0188 13.6969 31.6754 13.7512 31.3523 13.8683C31.0318 13.9744 30.7359 14.1123 30.4646 14.2819C30.0576 14.5364 29.8028 14.7854 29.7003 15.0288C29.6045 15.2679 29.6181 15.4859 29.7411 15.6826C29.8429 15.8454 29.9846 15.9361 30.1661 15.9547C30.3543 15.969 30.5693 15.9431 30.8109 15.8769C31.0484 15.8039 31.304 15.7148 31.5779 15.6096C31.8586 15.5002 32.1409 15.4085 32.425 15.3347C32.7116 15.2498 32.9948 15.2048 33.2746 15.1996C33.557 15.1834 33.8208 15.2355 34.0659 15.3559C34.311 15.4762 34.529 15.689 34.7198 15.9943Z" fill="white"/>
<path d="M41.7775 10.7134L45.096 9.66581L45.4501 10.7873L42.1315 11.8349L41.7775 10.7134ZM42.8318 13.3755L46.4708 12.2268L46.8356 13.3825L41.7548 14.9865L39.6884 8.44089L44.6434 6.87669L45.0119 8.04391L41.4988 9.15294L42.8318 13.3755Z" fill="white"/>
<path d="M54.3189 10.6425L54.1606 8.88357L57.4413 5.22599L59.1198 5.15515L56.257 8.4708L55.4427 9.38195L54.3189 10.6425ZM53.0309 12.2822L52.7414 5.42433L54.2521 5.36057L54.5415 12.2185L53.0309 12.2822ZM57.8026 12.0808L55.1459 9.17828L56.0829 8.04577L59.589 12.0055L57.8026 12.0808Z" fill="white"/>
<path d="M64.5258 12.4138L69.1403 6.45094L70.6001 6.79579L72.0469 14.1905L70.587 13.8456L69.4426 7.31148L69.9331 7.42735L65.9623 12.7531L64.5258 12.4138ZM66.3745 11.3215L67.0364 10.2942L70.5166 11.1163L70.6488 12.3313L66.3745 11.3215Z" fill="white"/>
<path d="M77.5963 16.4411L80.9238 10.4377L83.5163 11.8746C84.055 12.1732 84.4718 12.5186 84.7667 12.9107C85.0655 13.2958 85.2306 13.7075 85.2621 14.1457C85.3006 14.5878 85.1938 15.0362 84.9417 15.491C84.6935 15.9389 84.3718 16.2636 83.9765 16.4652C83.5881 16.6707 83.1515 16.7489 82.6666 16.6996C82.1817 16.6504 81.6699 16.4764 81.1311 16.1778L79.2734 15.1481L80.1811 14.8966L78.9187 17.1741L77.5963 16.4411ZM81.5006 18.6052L81.1678 15.567L82.5952 16.3582L82.928 19.3964L81.5006 18.6052ZM80.0938 15.054L79.9543 14.1672L81.6126 15.0864C82.0744 15.3423 82.4731 15.4398 82.8087 15.3789C83.1482 15.311 83.4149 15.1021 83.6088 14.7522C83.8027 14.4024 83.8366 14.069 83.7104 13.7521C83.5842 13.4352 83.2902 13.1488 82.8284 12.8928L81.1701 11.9736L81.9903 11.6325L80.0938 15.054Z" fill="white"/>
<path d="M87.3378 22.5441L94.3839 19.8605L95.45 20.9157L92.8303 27.9805L91.7642 26.9253L94.1933 20.7525L94.5515 21.107L88.3869 23.5824L87.3378 22.5441ZM89.4848 22.5755L90.5852 22.0438L93.1267 24.5594L92.6063 25.6651L89.4848 22.5755Z" fill="white"/>
<path d="M96.4148 32.7638L102.419 29.438L103.024 30.5297L100.642 36.5817L100.369 36.0883L104.757 33.6579L105.483 34.97L99.479 38.2959L98.8743 37.2041L101.256 31.1522L101.535 31.656L97.1474 34.0865L96.4148 32.7638Z" fill="white"/>
<path d="M104.127 50.7684C103.896 50.5824 103.682 50.356 103.482 50.0893C103.292 49.8285 103.13 49.5452 102.996 49.2392C102.854 48.935 102.746 48.619 102.672 48.2912C102.511 47.5731 102.514 46.8958 102.683 46.2594C102.861 45.629 103.175 45.095 103.626 44.6574C104.077 44.2198 104.634 43.9264 105.298 43.7773C105.961 43.6281 106.587 43.6557 107.174 43.8599C107.769 44.0623 108.277 44.4073 108.698 44.8948C109.129 45.3883 109.424 45.9902 109.583 46.7005C109.724 47.3249 109.753 47.8923 109.671 48.4028C109.597 48.9114 109.403 49.3649 109.091 49.763L107.95 49.0109C108.169 48.7076 108.307 48.3896 108.363 48.0572C108.428 47.7229 108.418 47.3724 108.336 47.0055C108.239 46.5763 108.059 46.211 107.794 45.9096C107.532 45.6161 107.211 45.4095 106.831 45.2899C106.461 45.1762 106.061 45.1677 105.632 45.2642C105.203 45.3607 104.842 45.5442 104.551 45.8148C104.259 46.0854 104.058 46.4135 103.948 46.799C103.838 47.1845 103.833 47.5998 103.933 48.0447C104.012 48.3959 104.138 48.7036 104.312 48.9678C104.488 49.2399 104.715 49.4801 104.991 49.6886L104.127 50.7684ZM103.802 49.3778L106.483 48.7751L106.796 50.1683L104.127 50.7684L103.802 49.3778Z" fill="white"/>
<path d="M102.789 67.2651C102.894 66.7969 103.076 66.3909 103.334 66.0472C103.592 65.7035 103.91 65.4554 104.289 65.303L105.01 66.4128C104.755 66.5275 104.541 66.6761 104.369 66.8586C104.204 67.0429 104.094 67.26 104.037 67.5097C103.893 68.1496 104.203 68.5558 104.968 68.7282L108.199 69.4566L108.735 67.0802L109.929 67.3494L109.061 71.2007L104.765 70.2322C103.914 70.0405 103.328 69.6912 103.008 69.1843C102.688 68.6774 102.614 68.0377 102.789 67.2651Z" fill="white"/>
<path d="M98.6157 79.0513C98.9217 78.4711 99.291 78.0282 99.7234 77.7227C100.159 77.4279 100.637 77.2773 101.156 77.2706C101.682 77.2677 102.224 77.4137 102.783 77.7085L106.254 79.539L105.549 80.8764L102.121 79.0683C101.597 78.7921 101.132 78.7051 100.725 78.8072C100.319 78.9093 99.9921 79.1939 99.7458 79.6609C99.5032 80.1209 99.453 80.5421 99.595 80.9245C99.7403 81.3177 100.078 81.6542 100.609 81.9341L104.037 83.7423L103.343 85.0584L99.8725 83.2279C99.3134 82.9331 98.8866 82.5678 98.5918 82.1319C98.3005 81.7069 98.1533 81.2314 98.1504 80.7053C98.1546 80.1829 98.3097 79.6316 98.6157 79.0513Z" fill="white"/>
<path d="M89.3093 92.7147C89.3387 92.4201 89.4104 92.1163 89.5244 91.8034C89.6386 91.5018 89.7869 91.211 89.9693 90.9309C90.1459 90.6453 90.3512 90.3819 90.5851 90.1407C91.0975 89.6123 91.6661 89.2443 92.2909 89.0367C92.9158 88.8404 93.5349 88.8111 94.148 88.9488C94.7611 89.0864 95.3118 89.392 95.7999 89.8653C96.2881 90.3387 96.6076 90.8769 96.7583 91.48C96.9147 92.0886 96.9044 92.7026 96.7272 93.322C96.5502 93.9527 96.2083 94.5293 95.7015 95.052C95.256 95.5114 94.7972 95.8466 94.3252 96.0575C93.859 96.274 93.3738 96.3607 92.8696 96.3175L92.874 94.9512C93.2477 94.9681 93.589 94.9091 93.8981 94.7742C94.213 94.6449 94.5013 94.4453 94.763 94.1753C95.0693 93.8595 95.2761 93.5083 95.3833 93.122C95.4849 92.7414 95.4819 92.3595 95.3742 91.9765C95.2666 91.6047 95.0549 91.2657 94.739 90.9594C94.4231 90.6531 94.0721 90.452 93.6859 90.3561C93.2997 90.2602 92.9152 90.2718 92.5323 90.3908C92.1494 90.5099 91.7993 90.7331 91.4818 91.0604C91.2312 91.3189 91.0431 91.5933 90.9174 91.8838C90.7862 92.18 90.7091 92.5008 90.6861 92.8463L89.3093 92.7147ZM90.2948 91.6812L92.2676 93.5942L91.2735 94.6194L89.3093 92.7147L90.2948 91.6812Z" fill="white"/>
<path d="M84.5103 95.6934L85.263 103.196L83.9663 103.949L77.8294 99.5777L79.1261 98.8237L84.4517 102.779L84.016 103.032L83.2343 96.4353L84.5103 95.6934ZM83.9199 97.7579L84.1462 98.9588L81.0548 100.756L80.123 99.9654L83.9199 97.7579Z" fill="white"/>
<path d="M65.9333 46C65.9333 47.3992 67.2588 49.4886 68.6006 51.2423C70.3258 53.5051 72.3873 55.4795 74.7508 56.9862C76.5229 58.1157 78.6712 59.2 80.4 59.2M80.4 59.2C78.6712 59.2 76.5211 60.2843 74.7508 61.4138C72.3873 62.9224 70.3258 64.8967 68.6006 67.1558C67.2588 68.9114 65.9333 71.0046 65.9333 72.4M80.4 59.2H37" stroke="#0583D2" stroke-width="2"/>
</svg>
