<svg width="60" height="60" viewBox="0 0 60 60" fill="none" xmlns="http://www.w3.org/2000/svg">
<rect x="0.666666" y="0.666666" width="58.6665" height="58.6666" rx="29.3333" stroke="#C1F1FF" stroke-width="1.33333"/>
<path d="M24.1667 16.1113H35.8334C40.2778 16.1113 43.8889 19.7224 43.8889 24.1669V35.8335C43.8889 37.97 43.0402 40.019 41.5295 41.5297C40.0188 43.0404 37.9699 43.8891 35.8334 43.8891H24.1667C19.7223 43.8891 16.1112 40.278 16.1112 35.8335V24.1669C16.1112 22.0304 16.9599 19.9815 18.4706 18.4707C19.9813 16.96 22.0303 16.1113 24.1667 16.1113ZM23.889 18.8891C22.5629 18.8891 21.2911 19.4159 20.3534 20.3536C19.4158 21.2913 18.889 22.563 18.889 23.8891V36.1113C18.889 38.8752 21.1251 41.1113 23.889 41.1113H36.1112C37.4372 41.1113 38.709 40.5845 39.6467 39.6469C40.5844 38.7092 41.1112 37.4374 41.1112 36.1113V23.8891C41.1112 21.1252 38.875 18.8891 36.1112 18.8891H23.889ZM37.2917 20.9724C37.7522 20.9724 38.1937 21.1553 38.5193 21.4809C38.8449 21.8065 39.0278 22.2481 39.0278 22.7085C39.0278 23.169 38.8449 23.6106 38.5193 23.9362C38.1937 24.2617 37.7522 24.4447 37.2917 24.4447C36.8313 24.4447 36.3897 24.2617 36.0641 23.9362C35.7385 23.6106 35.5556 23.169 35.5556 22.7085C35.5556 22.2481 35.7385 21.8065 36.0641 21.4809C36.3897 21.1553 36.8313 20.9724 37.2917 20.9724ZM30.0001 23.0558C31.8418 23.0558 33.6082 23.7874 34.9105 25.0898C36.2129 26.3921 36.9445 28.1584 36.9445 30.0002C36.9445 31.842 36.2129 33.6083 34.9105 34.9107C33.6082 36.213 31.8418 36.9447 30.0001 36.9447C28.1583 36.9447 26.3919 36.213 25.0896 34.9107C23.7873 33.6083 23.0556 31.842 23.0556 30.0002C23.0556 28.1584 23.7873 26.3921 25.0896 25.0898C26.3919 23.7874 28.1583 23.0558 30.0001 23.0558ZM30.0001 25.8335C28.895 25.8335 27.8352 26.2725 27.0538 27.0539C26.2724 27.8353 25.8334 28.8951 25.8334 30.0002C25.8334 31.1053 26.2724 32.1651 27.0538 32.9465C27.8352 33.7279 28.895 34.1669 30.0001 34.1669C31.1051 34.1669 32.1649 33.7279 32.9463 32.9465C33.7277 32.1651 34.1667 31.1053 34.1667 30.0002C34.1667 28.8951 33.7277 27.8353 32.9463 27.0539C32.1649 26.2725 31.1051 25.8335 30.0001 25.8335Z" fill="#047392"/>
</svg>
