<svg width="61" height="60" viewBox="0 0 61 60" fill="none" xmlns="http://www.w3.org/2000/svg">
<rect x="1.26628" y="0.666666" width="58.6665" height="58.6666" rx="29.3333" stroke="#C1F1FF" stroke-width="1.33333"/>
<path d="M45.8772 26.8198C45.9459 24.8318 45.5111 22.8587 44.6133 21.0837C44.0041 20.3554 43.1587 19.8639 42.2244 19.6948C38.3599 19.3442 34.4793 19.2004 30.5994 19.2643C26.7337 19.1975 22.8671 19.3366 19.0161 19.6809C18.2548 19.8194 17.5502 20.1766 16.9884 20.7087C15.7384 21.8615 15.5995 23.8337 15.4606 25.5004C15.2591 28.497 15.2591 31.5038 15.4606 34.5004C15.5008 35.4384 15.6404 36.3696 15.8772 37.2782C16.0447 37.9796 16.3835 38.6286 16.8634 39.167C17.429 39.7274 18.15 40.1048 18.9328 40.2504C21.9271 40.62 24.9442 40.7732 27.9606 40.7087C32.8217 40.7782 37.0855 40.7087 42.1272 40.3198C42.9292 40.1832 43.6705 39.8053 44.2522 39.2365C44.641 38.8475 44.9315 38.3713 45.0994 37.8476C45.5961 36.3235 45.8401 34.7283 45.8216 33.1254C45.8772 32.3476 45.8772 27.6532 45.8772 26.8198ZM27.4606 33.9587V25.3615L35.6828 29.6809C33.3772 30.9587 30.3356 32.4032 27.4606 33.9587Z" fill="#047392"/>
</svg>
