<svg width="26" height="21" viewBox="0 0 26 21" fill="none" xmlns="http://www.w3.org/2000/svg">
<path d="M11.08 0.479997L7.12 14.88L5.8 9.48C7.52 9.48 8.92 9.98 10 10.98C11.08 11.98 11.62 13.36 11.62 15.12C11.62 16.84 11.06 18.24 9.94 19.32C8.86 20.36 7.5 20.88 5.86 20.88C4.18 20.88 2.78 20.36 1.66 19.32C0.58 18.24 0.0400001 16.84 0.0400001 15.12C0.0400001 14.6 0.0800001 14.1 0.16 13.62C0.24 13.1 0.4 12.5 0.64 11.82C0.88 11.14 1.22 10.24 1.66 9.12L5.14 0.479997H11.08ZM25.24 0.479997L21.28 14.88L19.96 9.48C21.68 9.48 23.08 9.98 24.16 10.98C25.24 11.98 25.78 13.36 25.78 15.12C25.78 16.84 25.22 18.24 24.1 19.32C23.02 20.36 21.66 20.88 20.02 20.88C18.34 20.88 16.94 20.36 15.82 19.32C14.74 18.24 14.2 16.84 14.2 15.12C14.2 14.6 14.24 14.1 14.32 13.62C14.4 13.1 14.56 12.5 14.8 11.82C15.04 11.14 15.38 10.24 15.82 9.12L19.3 0.479997H25.24Z" fill="#0583D2"/>
</svg>
